# xmcd
#
# Track frame offsets: 
#        150
#        27814
#        49326
#        72377
#        94673
#        117406
#        144050
#        168069
#        184473
#        206026
#        224187
#
# Disc length: 3755 seconds
#
# Revision: 1
# Processed by: cddbd v1.5.2PL0 Copyright (c) Steve Scherf et al.
# Submitted via: ExactAudioCopy v0.99pb3
#
DISCID=a60ea90b
DTITLE=Louisiana Red - I Hear The Train Coming
DYEAR=1997
DGENRE=Blues
TTITLE0=Lisa
TTITLE1=The Last Time
TTITLE2=Mystery Train
TTITLE3=Tell Me Baby
TTITLE4=Ethiopia
TTITLE5=One Thing
TTITLE6=You Can't Fool Me
TTITLE7=Piece Of Paper
TTITLE8=Don't Hurt Me
TTITLE9=Blues Stay Away From Me
TTITLE10=I Hear The Train Coming
EXTD=YEAR: 1997 ID3G: 0
EXTT0=
EXTT1=
EXTT2=
EXTT3=
EXTT4=
EXTT5=
EXTT6=
EXTT7=
EXTT8=
EXTT9=
EXTT10=
PLAYORDER=
